<?xml version="1.0" encoding="UTF-8"?>
<!DOCTYPE svg PUBLIC "-//W3C//DTD SVG 1.1//EN" "http://www.w3.org/Graphics/SVG/1.1/DTD/svg11.dtd">
<!-- Creator: CorelDRAW X7 -->
<svg xmlns="http://www.w3.org/2000/svg" xml:space="preserve" width="330mm" height="210mm" version="1.1" style="shape-rendering:geometricPrecision; text-rendering:geometricPrecision; image-rendering:optimizeQuality; fill-rule:evenodd; clip-rule:evenodd"
viewBox="0 0 33000 21000"
 xmlns:xlink="http://www.w3.org/1999/xlink">
 <defs>
  <style type="text/css">
   <![CDATA[
    .str1 {stroke:#757475;stroke-width:20}
    .str0 {stroke:#5F5D5D;stroke-width:20}
    .fil2 {fill:#FEFEFE}
    .fil0 {fill:red}
    .fil1 {fill:red}
   ]]>
  </style>
    <clipPath id="id0">
     <path d="M4574 6719l22615 0 0 7491 -22615 0 0 -7491z"/>
    </clipPath>
 </defs>
 <g id="Layer_x0020_1">
  <metadata id="CorelCorpID_0Corel-Layer"/>
  <g id="_2773655993264">
   <g style="clip-path:url(#id0)">
    <image x="4574" y="6719" width="22615" height="7491" xlink:href="IDflix1_Images\IDflix1_ImgID1.png"/>
   </g>
  </g>
  <g id="_2773655990448">
   <path class="fil0 str0" d="M26044 9884c-597,-163 -1203,-283 -1816,-367 -243,-439 -1002,-1081 -904,-2597 15,-231 206,-189 378,-178l819 53c178,34 167,-34 176,520 15,1288 426,1770 582,1780 268,18 671,-892 711,-1518 6,-97 10,-500 13,-545 12,-201 225,-128 314,-122l581 37c344,15 326,178 307,461 -115,1796 -1134,2060 -1161,2470 0,2 0,4 0,6z"/>
   <path class="fil0 str0" d="M21889 9431c-397,-29 -796,-47 -1195,-53 115,-2662 438,-2547 551,-2545l801 16c96,2 282,-17 280,124 -2,69 -367,1149 -437,2458z"/>
   <path class="fil0 str0" d="M17701 9106c-330,2 -660,9 -987,23 127,-1140 318,-2353 441,-2353l1086 0c48,0 130,14 130,137 0,113 -448,972 -670,2193z"/>
   <path class="fil0 str0" d="M15720 9185c-967,71 -1913,186 -2819,328 29,-2897 355,-2786 465,-2786l2771 0c81,0 325,-20 325,116 0,54 -433,1002 -522,1002 -115,0 -318,-318 -982,-318 -467,0 -962,278 -962,928 0,407 20,535 217,535 440,0 481,-311 1375,-311 75,0 231,0 231,115 0,13 -42,187 -99,391z"/>
   <path class="fil0 str0" d="M12177 9445c-378,9 -750,23 -1112,42 -179,-1355 -944,-1950 -1352,-1945 -495,5 -584,917 -580,1363l7 727c-384,38 -752,79 -1100,123 -9,-3149 340,-3034 456,-3035l1201 -12c792,-8 2151,742 2480,2737z"/>
   <path class="fil1 str0" d="M6880 9984c-456,71 -859,141 -1196,205 -262,-3550 126,-3448 251,-3458l798 -61c96,-7 280,-43 290,97 6,74 -292,1339 -184,2766 12,155 26,306 41,451z"/>
   <path class="fil2 str1" d="M26075 9909l-35 6 -1723 -268c9,36 13,70 11,103 -25,395 -1536,1084 -1660,3021 -9,149 194,125 298,132l552 35c335,21 298,19 375,-373 247,-1510 969,-1920 1103,-1911 139,8 627,571 657,1845l2 322c11,300 81,259 342,276l739 47c245,16 288,49 304,-205 114,-1749 -900,-2650 -965,-3030z"/>
   <path class="fil2 str1" d="M21897 9532l-1183 -156 -7 1c-12,277 -21,583 -28,923 -55,2780 171,2644 356,2647l904 18 149 3c66,1 111,-5 112,-79 3,-104 -344,-1335 -307,-3233 1,-41 2,-83 4,-124z"/>
   <path class="fil2 str1" d="M17713 9187l-969 -38 -5 0c-76,685 -128,1338 -128,1680 34,1387 -75,1626 287,1612l2781 0c82,0 294,34 294,-102 0,-34 -267,-1353 -397,-1353 -170,0 -553,581 -1182,581 -375,0 -785,-226 -785,-1169 0,-429 41,-836 104,-1211z"/>
   <path class="fil2 str1" d="M15732 9260l-2801 224c-2,151 -3,310 -3,478 0,2541 204,2412 373,2412l800 0c61,0 230,21 223,-61 7,-74 -264,-1023 -264,-1612 0,-556 298,-901 894,-901 264,0 447,95 515,95 65,0 177,-336 263,-635z"/>
   <path class="fil2 str1" d="M12172 9468l-1096 191c13,130 21,265 22,407 13,1272 -697,1640 -1079,1644 -396,4 -864,-175 -880,-1765l-2 -138 -1101 -31c0,110 1,224 2,343 27,2650 238,2514 414,2512l1831 -19c1427,-14 1975,-1045 1963,-2268 -3,-315 -30,-607 -74,-876z"/>
   <path class="fil2 str1" d="M6881 10076l-1195 251c211,2767 422,2610 606,2596l902 -68 148 -11c67,-6 111,-16 105,-90 -7,-94 -388,-1083 -566,-2678z"/>
  </g>
 </g>
</svg>
